<svg width="642" height="494" xmlns="http://www.w3.org/2000/svg" xmlns:xlink="http://www.w3.org/1999/xlink" overflow="hidden"><defs><clipPath id="clip0"><rect x="0" y="0" width="642" height="494"/></clipPath></defs><g clip-path="url(#clip0)"><path d="M-3.63396 0.30283 0.30283 0.30283 0.30283 427.293-3.63396 427.293" stroke="#000000" stroke-width="0.60566" fill="none" transform="matrix(1 0 0 1.00078 148.387 60.6135)"/><path d="M0 0-3.63396 0" stroke="#000000" stroke-width="0.60566" fill="none" transform="matrix(1 0 0 1.00078 148.387 104.703)"/><text font-family="Arial,Arial_MSFontService,sans-serif" font-weight="400" font-size="14" transform="matrix(0.60566 0 0 0.606135 1.21132 107)">Number of invalid DOIs after cleaning</text><path d="M0 0-3.63396 0" stroke="#000000" stroke-width="0.60566" fill="none" transform="matrix(1 0 0 1.00078 148.387 172.532)"/><text font-family="Arial,Arial_MSFontService,sans-serif" font-weight="400" font-size="14" transform="matrix(0.60566 0 0 0.606135 7.87358 175)">Number of valid DOIs after cleaning</text><path d="M0 0-3.63396 0" stroke="#000000" stroke-width="0.60566" fill="none" transform="matrix(1 0 0 1.00078 148.387 240.362)"/><text font-family="Arial,Arial_MSFontService,sans-serif" font-weight="400" font-size="14" transform="matrix(0.60566 0 0 0.606135 76.9189 243)">Suffix errors fixed</text><path d="M0 0-3.63396 0" stroke="#000000" stroke-width="0.60566" fill="none" transform="matrix(1 0 0 1.00078 148.387 308.191)"/><text font-family="Arial,Arial_MSFontService,sans-serif" font-weight="400" font-size="14" transform="matrix(0.60566 0 0 0.606135 15.1415 311)">DOIs temporarily invalid now valid</text><path d="M0 0-3.63396 0" stroke="#000000" stroke-width="0.60566" fill="none" transform="matrix(1 0 0 1.00078 148.387 376.02)"/><text font-family="Arial,Arial_MSFontService,sans-serif" font-weight="400" font-size="14" transform="matrix(0.60566 0 0 0.606135 76.3132 379)">Prefix errors fixed</text><path d="M0 0-3.63396 0" stroke="#000000" stroke-width="0.60566" fill="none" transform="matrix(1 0 0 1.00078 148.387 443.85)"/><text font-family="Arial,Arial_MSFontService,sans-serif" font-weight="400" font-size="14" transform="matrix(0.60566 0 0 0.606135 56.9321 447)">Other type errors fixed</text><path d="M0.30283-3.63396 0.30283 0.30283 454.548 0.30283 454.548-3.63396" stroke="#000000" stroke-width="0.60566" fill="none" transform="matrix(1 0 0 1.00078 148.387 60.6135)"/><path d="M0 0 0-3.63396" stroke="#000000" stroke-width="0.60566" fill="none" transform="matrix(1 0 0 1.00078 148.69 60.6135)"/><text font-family="Arial,Arial_MSFontService,sans-serif" font-weight="400" font-size="14" transform="matrix(0.60566 0 0 0.606135 135.668 55)">0 <tspan font-size="14" x="12" y="0">DOIs</tspan></text><path d="M0 0 0-3.63396" stroke="#000000" stroke-width="0.60566" fill="none" transform="matrix(1 0 0 1.00078 189.985 60.6135)"/><text font-family="Arial,Arial_MSFontService,sans-serif" font-weight="400" font-size="14" transform="matrix(0.60566 0 0 0.606135 174.237 55)">100<tspan font-size="14" x="24" y="0">,</tspan><tspan font-size="14" x="28" y="0">000</tspan></text><path d="M0 0 0-3.63396" stroke="#000000" stroke-width="0.60566" fill="none" transform="matrix(1 0 0 1.00078 231.28 60.6135)"/><text font-family="Arial,Arial_MSFontService,sans-serif" font-weight="400" font-size="14" transform="matrix(0.60566 0 0 0.606135 215.533 55)">200<tspan font-size="14" x="24" y="0">,</tspan><tspan font-size="14" x="28" y="0">000</tspan></text><path d="M0 0 0-3.63396" stroke="#000000" stroke-width="0.60566" fill="none" transform="matrix(1 0 0 1.00078 272.574 60.6135)"/><text font-family="Arial,Arial_MSFontService,sans-serif" font-weight="400" font-size="14" transform="matrix(0.60566 0 0 0.606135 256.827 55)">300<tspan font-size="14" x="24" y="0">,</tspan><tspan font-size="14" x="28" y="0">000</tspan></text><path d="M0 0 0-3.63396" stroke="#000000" stroke-width="0.60566" fill="none" transform="matrix(1 0 0 1.00078 313.87 60.6135)"/><text font-family="Arial,Arial_MSFontService,sans-serif" font-weight="400" font-size="14" transform="matrix(0.60566 0 0 0.606135 298.122 55)">400<tspan font-size="14" x="24" y="0">,</tspan><tspan font-size="14" x="28" y="0">000</tspan></text><path d="M0 0 0-3.63396" stroke="#000000" stroke-width="0.60566" fill="none" transform="matrix(1 0 0 1.00078 355.165 60.6135)"/><text font-family="Arial,Arial_MSFontService,sans-serif" font-weight="400" font-size="14" transform="matrix(0.60566 0 0 0.606135 339.418 55)">500<tspan font-size="14" x="24" y="0">,</tspan><tspan font-size="14" x="28" y="0">000</tspan></text><path d="M0 0 0-3.63396" stroke="#000000" stroke-width="0.60566" fill="none" transform="matrix(1 0 0 1.00078 396.46 60.6135)"/><text font-family="Arial,Arial_MSFontService,sans-serif" font-weight="400" font-size="14" transform="matrix(0.60566 0 0 0.606135 380.713 55)">600<tspan font-size="14" x="24" y="0">,</tspan><tspan font-size="14" x="28" y="0">000</tspan></text><path d="M0 0 0-3.63396" stroke="#000000" stroke-width="0.60566" fill="none" transform="matrix(1 0 0 1.00078 437.755 60.6135)"/><text font-family="Arial,Arial_MSFontService,sans-serif" font-weight="400" font-size="14" transform="matrix(0.60566 0 0 0.606135 422.008 55)">700<tspan font-size="14" x="24" y="0">,</tspan><tspan font-size="14" x="28" y="0">000</tspan></text><path d="M0 0 0-3.63396" stroke="#000000" stroke-width="0.60566" fill="none" transform="matrix(1 0 0 1.00078 479.05 60.6135)"/><text font-family="Arial,Arial_MSFontService,sans-serif" font-weight="400" font-size="14" transform="matrix(0.60566 0 0 0.606135 463.303 55)">800<tspan font-size="14" x="24" y="0">,</tspan><tspan font-size="14" x="28" y="0">000</tspan></text><path d="M0 0 0-3.63396" stroke="#000000" stroke-width="0.60566" fill="none" transform="matrix(1 0 0 1.00078 520.345 60.6135)"/><text font-family="Arial,Arial_MSFontService,sans-serif" font-weight="400" font-size="14" transform="matrix(0.60566 0 0 0.606135 504.597 55)">900<tspan font-size="14" x="24" y="0">,</tspan><tspan font-size="14" x="28" y="0">000</tspan></text><path d="M0 0 0-3.63396" stroke="#000000" stroke-width="0.60566" fill="none" transform="matrix(1 0 0 1.00078 561.64 60.6135)"/><text font-family="Arial,Arial_MSFontService,sans-serif" font-weight="400" font-size="14" transform="matrix(0.60566 0 0 0.606135 542.259 55)">1<tspan font-size="14" x="7.99999" y="0">,</tspan><tspan font-size="14" x="11.9999" y="0">000</tspan><tspan font-size="14" x="36" y="0">,</tspan><tspan font-size="14" x="39.9999" y="0">000</tspan></text><path d="M0 0 0-3.63396" stroke="#000000" stroke-width="0.60566" fill="none" transform="matrix(1 0 0 1.00078 602.935 60.6135)"/><text font-family="Arial,Arial_MSFontService,sans-serif" font-weight="400" font-size="14" transform="matrix(0.60566 0 0 0.606135 583.554 55)">1<tspan font-size="14" x="7.99999" y="0">,</tspan><tspan font-size="14" x="12" y="0">100</tspan><tspan font-size="14" x="36" y="0">,</tspan><tspan font-size="14" x="40" y="0">000</tspan></text><path d="M0 0 422.974 0 422.974 23.6208 1.12378e-05 23.6208Z" fill="#1F77B4" transform="matrix(1 0 0 1.00078 148.387 80.9623)"/><path d="M0 23.6208 448.384 23.6208 448.384 47.2415-1.18293e-06 47.2415Z" fill="#FF7F0E" transform="matrix(1 0 0 1.00078 148.387 80.9623)"/><text fill="#262833" font-family="Arial,Arial_MSFontService,sans-serif" font-weight="400" font-size="12" transform="matrix(0.60566 0 0 0.606135 574.39 93)">1<tspan font-size="12" x="7" y="0">,</tspan><tspan font-size="12" x="9.99996" y="0">024</tspan><tspan font-size="12" x="31" y="0">,</tspan><tspan font-size="12" x="34" y="0">275</tspan><tspan font-size="12" x="41.954" y="37.9453">1</tspan><tspan font-size="12" x="48.954" y="37.9453">,</tspan><tspan font-size="12" x="51.954" y="37.9453">085</tspan><tspan font-size="12" x="72.954" y="37.9453">,</tspan><tspan font-size="12" x="75.954" y="37.9453">807</tspan></text><path d="M0 0 82.1851 0 82.1851 23.6208 4.43599e-06 23.6208Z" fill="#1F77B4" transform="matrix(1 0 0 1.00078 148.387 148.792)"/><path d="M0 23.6208 56.7757 23.6208 56.7757 47.2415-9.68524e-07 47.2415Z" fill="#FF7F0E" transform="matrix(1 0 0 1.00078 148.387 148.792)"/><text fill="#262833" font-family="Arial,Arial_MSFontService,sans-serif" font-weight="400" font-size="12" transform="matrix(0.60566 0 0 0.606135 233.6 161)">199<tspan font-size="12" x="21" y="0">,</tspan><tspan font-size="12" x="24" y="0">020</tspan><tspan font-size="12" x="-41.9532" y="37.9453">137</tspan><tspan font-size="12" x="-20.9532" y="37.9453">,</tspan><tspan font-size="12" x="-17.9532" y="37.9453">488</tspan></text><path d="M0 0 49.2014 0 49.2014 23.6208 5.32319e-07 23.6208Z" fill="#1F77B4" transform="matrix(1 0 0 1.00078 148.387 216.621)"/><path d="M0 23.6208 56.3846 23.6208 56.3846 47.2415-8.87198e-08 47.2415Z" fill="#FF7F0E" transform="matrix(1 0 0 1.00078 148.387 216.621)"/><text fill="#262833" font-family="Arial,Arial_MSFontService,sans-serif" font-weight="400" font-size="12" transform="matrix(0.60566 0 0 0.606135 200.616 228)">119<tspan font-size="12" x="20" y="0">,</tspan><tspan font-size="12" x="23" y="0">146</tspan><tspan font-size="12" x="11.8602" y="39.5951">136</tspan><tspan font-size="12" x="32.8602" y="39.5951">,</tspan><tspan font-size="12" x="35.8602" y="39.5951">541</tspan></text><path d="M0 0 23.6191 0 23.6191 23.6208-4.87959e-07 23.6208Z" fill="#1F77B4" transform="matrix(1 0 0 1.00078 148.387 284.451)"/><text fill="#262833" font-family="Arial,Arial_MSFontService,sans-serif" font-weight="400" font-size="12" transform="matrix(0.60566 0 0 0.606135 175.034 296)">57<tspan font-size="12" x="14" y="0">,</tspan><tspan font-size="12" x="17" y="0">196</tspan><tspan font-size="12" x="-38.9973" y="39.5951">0</tspan></text><path d="M0 0 8.97837 0 8.97837 23.6208-2.78173e-07 23.6208Z" fill="#1F77B4" transform="matrix(1 0 0 1.00078 148.387 352.28)"/><text fill="#262833" font-family="Arial,Arial_MSFontService,sans-serif" font-weight="400" font-size="12" transform="matrix(0.60566 0 0 0.606135 160.393 364)">21<tspan font-size="12" x="14" y="0">,</tspan><tspan font-size="12" x="17" y="0">742</tspan><tspan font-size="12" x="-14.8241" y="39.5951">0</tspan></text><path d="M0 0 0.393542 0 0.393542 23.6208 1.01196e-09 23.6208Z" fill="#1F77B4" transform="matrix(1 0 0 1.00078 148.387 420.109)"/><path d="M0 23.6208 0.393542 23.6208 0.393542 47.2415 1.01196e-09 47.2415Z" fill="#FF7F0E" transform="matrix(1 0 0 1.00078 148.387 420.109)"/><text fill="#262833" font-family="Arial,Arial_MSFontService,sans-serif" font-weight="400" font-size="12" transform="matrix(0.60566 0 0 0.606135 151.809 432)">953<tspan font-size="12" x="0" y="39.5951">953</tspan></text><path d="M443.343-60.566 454.245-60.566 454.245-49.6642 443.343-49.6642Z" fill="#1F77B4" transform="matrix(1 0 0 1.00078 148.387 60.6135)"/><text font-family="Arial,Arial_MSFontService,sans-serif" font-weight="400" font-size="12" transform="matrix(0.60566 0 0 0.606135 537.221 8)">New procedure</text><path d="M443.343-60.566 454.245-60.566 454.245-49.6642 443.343-49.6642Z" fill="#FF7F0E" transform="matrix(1 0 0 1.00078 148.387 72.7362)"/><text font-family="Arial,Arial_MSFontService,sans-serif" font-weight="400" font-size="12" transform="matrix(0.60566 0 0 0.606135 517.84 20)">Reference procedure</text></g></svg>